<?xml version="1.0" encoding="utf-8"?>
<!-- Generator: Adobe Illustrator 25.0.0, SVG Export Plug-In . SVG Version: 6.00 Build 0)  -->
<svg version="1.1" id="圖層_1" xmlns="http://www.w3.org/2000/svg" xmlns:xlink="http://www.w3.org/1999/xlink" x="0px" y="0px"
	 viewBox="0 0 424.03 423.98" style="enable-background:new 0 0 424.03 423.98;" xml:space="preserve">
<style type="text/css">
	.st0{opacity:0.6;fill:url(#Path_911_1_);enable-background:new    ;}
</style>
<linearGradient id="Path_911_1_" gradientUnits="userSpaceOnUse" x1="77.2525" y1="423.2982" x2="78.2525" y2="423.2982" gradientTransform="matrix(424.0272 0 0 -423.982 -208.8811 179682.75)">
	<stop  offset="0" style="stop-color:#B5DCD1"/>
	<stop  offset="1" style="stop-color:#F4FAFB"/>
</linearGradient>
<path id="Path_911" class="st0" d="M418,262.02l-5.08,17.7l-41.31-11.85l5.08-17.7L418,262.02z M356.58,299.56l-10.34,15.26
	l35.59,24.11l10.34-15.26L356.58,299.56z M333.82,385.5l14.59-11.28l-26.32-34l-14.57,11.26L333.82,385.5z M259.31,374.29
	l14.42,40.53l17.35-6.18l-14.44-40.51L259.31,374.29z M206.38,380.97l1.1,42.97l18.42-0.45l-1.11-42.99L206.38,380.97z
	 M171.68,376.13l-17.65-5.3l-12.36,41.19l17.66,5.28L171.68,376.13z M107.41,344.91l-24.56,35.28l15.14,10.53l24.59-35.28
	L107.41,344.91z M71.21,305.75l-34.34,25.89l11.1,14.71l34.32-25.89L71.21,305.75z M48.97,257.26L8.3,271.19l5.97,17.43l40.66-13.91
	L48.97,257.26z M42.96,204.28l-43.02,0.55l0.27,18.43l42.95-0.58L42.96,204.28z M12.66,139.16l-5.5,17.6l41,12.84l5.51-17.59
	L12.66,139.16z M45.21,80.75l-10.7,15.02l34.99,24.95l10.72-14.98L45.21,80.75z M94.3,35.35l-14.8,10.93l25.45,34.62L119.8,70
	L94.3,35.35z M168.52,48.36L155.12,7.51l-17.52,5.75l13.44,40.86L168.52,48.36z M221.61,42.96l-0.04-43l-18.44,0.01l0.06,43.01
	L221.61,42.96z M273.7,54.36l13.38-40.88l-17.54-5.72L256.2,48.65L273.7,54.36z M319.7,81.43l25.37-34.69l-14.86-10.89l-25.39,34.69
	L319.7,81.43z M354.96,121.43l34.92-25.06l-10.72-14.95l-34.94,25.03L354.96,121.43z M411.44,139.93l-40.97,12.94l5.52,17.56
	l40.99-12.95L411.44,139.93z M423.97,205.61l-43.03-0.47l-0.22,18.41l43.02,0.48L423.97,205.61z"/>
</svg>
