<?xml version="1.0" encoding="utf-8"?>
<!-- Generator: Adobe Illustrator 25.0.0, SVG Export Plug-In . SVG Version: 6.00 Build 0)  -->
<svg version="1.1" id="圖層_1" xmlns="http://www.w3.org/2000/svg" xmlns:xlink="http://www.w3.org/1999/xlink" x="0px" y="0px"
	 viewBox="0 0 386 670" style="enable-background:new 0 0 386 670;" xml:space="preserve">
<style type="text/css">
	.st0{clip-path:url(#SVGID_2_);}
	.st1{fill:url(#Path_912_1_);}
	.st2{fill:url(#Path_913_1_);}
	.st3{fill:url(#Path_914_1_);}
	.st4{fill:url(#Path_915_1_);}
	.st5{fill:url(#Path_916_1_);}
	.st6{fill:url(#Path_917_1_);}
	.st7{fill:url(#Path_918_1_);}
	.st8{fill:url(#Path_919_1_);}
	.st9{fill:url(#Path_920_1_);}
	.st10{fill:url(#Path_921_1_);}
	.st11{fill:url(#Path_922_1_);}
	.st12{fill:url(#Path_923_1_);}
	.st13{fill:url(#Path_924_1_);}
	.st14{fill:url(#Path_925_1_);}
</style>
<g>
	<defs>
		<circle id="SVGID_1_" cx="102.08" cy="335" r="264.76"/>
	</defs>
	<clipPath id="SVGID_2_">
		<use xlink:href="#SVGID_1_"  style="overflow:visible;"/>
	</clipPath>
	<g id="Group_783" transform="translate(0 0)" class="st0">
		<g id="Group_782" transform="translate(341.219 125.343)">
			<g id="Group_768" transform="translate(0 487.187)">
				
					<linearGradient id="Path_912_1_" gradientUnits="userSpaceOnUse" x1="-339.7243" y1="53.8238" x2="-340.7243" y2="53.8238" gradientTransform="matrix(333.9345 0 0 -10.969 113507.2656 556.4586)">
					<stop  offset="0" style="stop-color:#B5DCD1"/>
					<stop  offset="1" style="stop-color:#F4FAFB"/>
				</linearGradient>
				<path id="Path_912" class="st1" d="M-266.85-28.45H56.11c3.03,0,5.48-2.46,5.48-5.48s-2.46-5.48-5.48-5.48h-322.96
					c-3.03,0-5.48,2.45-5.49,5.48c0,0,0,0,0,0.01C-272.34-30.91-269.88-28.45-266.85-28.45C-266.86-28.45-266.85-28.45-266.85-28.45
					z"/>
			</g>
			<g id="Group_769" transform="translate(0 449.712)">
				
					<linearGradient id="Path_913_1_" gradientUnits="userSpaceOnUse" x1="-339.7243" y1="91.2977" x2="-340.7243" y2="91.2977" gradientTransform="matrix(333.933 0 0 -10.966 113506.7578 967.2359)">
					<stop  offset="0" style="stop-color:#B5DCD1"/>
					<stop  offset="1" style="stop-color:#F4FAFB"/>
				</linearGradient>
				<path id="Path_913" class="st2" d="M-266.85-28.45H56.11c3.03,0,5.48-2.45,5.48-5.48s-2.45-5.48-5.48-5.48h-322.96
					c-3.03,0-5.48,2.45-5.49,5.48c0,0,0,0,0,0.01C-272.34-30.91-269.88-28.46-266.85-28.45C-266.86-28.45-266.85-28.45-266.85-28.45
					z"/>
			</g>
			<g id="Group_770" transform="translate(0 412.234)">
				
					<linearGradient id="Path_914_1_" gradientUnits="userSpaceOnUse" x1="-339.7243" y1="128.7757" x2="-340.7243" y2="128.7757" gradientTransform="matrix(333.933 0 0 -10.966 113506.7578 1378.2179)">
					<stop  offset="0" style="stop-color:#B5DCD1"/>
					<stop  offset="1" style="stop-color:#F4FAFB"/>
				</linearGradient>
				<path id="Path_914" class="st3" d="M-266.85-28.46H56.11c3.03,0,5.48-2.45,5.48-5.48s-2.45-5.48-5.48-5.48h-322.96
					c-3.03,0-5.48,2.45-5.49,5.48c0,0,0,0,0,0.01C-272.34-30.91-269.88-28.46-266.85-28.46C-266.86-28.46-266.85-28.46-266.85-28.46
					z"/>
			</g>
			<g id="Group_771" transform="translate(0 374.762)">
				
					<linearGradient id="Path_915_1_" gradientUnits="userSpaceOnUse" x1="-339.7243" y1="166.2477" x2="-340.7243" y2="166.2477" gradientTransform="matrix(333.933 0 0 -10.966 113506.7578 1789.1403)">
					<stop  offset="0" style="stop-color:#B5DCD1"/>
					<stop  offset="1" style="stop-color:#F4FAFB"/>
				</linearGradient>
				<path id="Path_915" class="st4" d="M-266.85-28.45H56.11c3.03,0,5.48-2.45,5.48-5.48s-2.45-5.48-5.48-5.48h-322.96
					c-3.03,0-5.48,2.45-5.49,5.48c0,0,0,0,0,0.01C-272.34-30.91-269.88-28.46-266.85-28.45C-266.86-28.45-266.85-28.45-266.85-28.45
					z"/>
			</g>
			<g id="Group_772" transform="translate(0 337.284)">
				
					<linearGradient id="Path_916_1_" gradientUnits="userSpaceOnUse" x1="-339.7243" y1="203.7268" x2="-340.7243" y2="203.7268" gradientTransform="matrix(333.9345 0 0 -10.969 113507.2656 2200.7485)">
					<stop  offset="0" style="stop-color:#B5DCD1"/>
					<stop  offset="1" style="stop-color:#F4FAFB"/>
				</linearGradient>
				<path id="Path_916" class="st5" d="M-266.85-28.45H56.11c3.03,0,5.48-2.46,5.48-5.48s-2.46-5.48-5.48-5.48h-322.96
					c-3.03,0-5.48,2.45-5.49,5.48c0,0,0,0,0,0.01C-272.34-30.91-269.88-28.45-266.85-28.45C-266.85-28.45-266.85-28.45-266.85-28.45
					z"/>
			</g>
			<g id="Group_773" transform="translate(0 299.806)">
				
					<linearGradient id="Path_917_1_" gradientUnits="userSpaceOnUse" x1="-339.7243" y1="241.2048" x2="-340.7243" y2="241.2048" gradientTransform="matrix(333.9345 0 0 -10.969 113507.2656 2611.8455)">
					<stop  offset="0" style="stop-color:#B5DCD1"/>
					<stop  offset="1" style="stop-color:#F4FAFB"/>
				</linearGradient>
				<path id="Path_917" class="st6" d="M-266.85-28.45H56.11c3.03,0,5.48-2.46,5.48-5.48s-2.46-5.48-5.48-5.48h-322.96
					c-3.03,0-5.48,2.45-5.49,5.48c0,0,0,0,0,0C-272.34-30.91-269.88-28.45-266.85-28.45C-266.86-28.45-266.85-28.45-266.85-28.45z"
					/>
			</g>
			<g id="Group_774" transform="translate(0 262.331)">
				
					<linearGradient id="Path_918_1_" gradientUnits="userSpaceOnUse" x1="-339.7243" y1="278.6787" x2="-340.7243" y2="278.6787" gradientTransform="matrix(333.933 0 0 -10.966 113506.7578 3022.0625)">
					<stop  offset="0" style="stop-color:#B5DCD1"/>
					<stop  offset="1" style="stop-color:#F4FAFB"/>
				</linearGradient>
				<path id="Path_918" class="st7" d="M-266.85-28.45H56.11c3.03,0,5.48-2.45,5.48-5.48s-2.45-5.48-5.48-5.48h-322.96
					c-3.03,0-5.48,2.45-5.49,5.48c0,0,0,0,0,0.01C-272.34-30.91-269.88-28.46-266.85-28.45C-266.86-28.45-266.85-28.45-266.85-28.45
					z"/>
			</g>
			<g id="Group_775" transform="translate(0 224.859)">
				
					<linearGradient id="Path_919_1_" gradientUnits="userSpaceOnUse" x1="-339.7243" y1="316.1507" x2="-340.7243" y2="316.1507" gradientTransform="matrix(333.933 0 0 -10.966 113506.7578 3432.9768)">
					<stop  offset="0" style="stop-color:#B5DCD1"/>
					<stop  offset="1" style="stop-color:#F4FAFB"/>
				</linearGradient>
				<path id="Path_919" class="st8" d="M-266.85-28.45H56.11c3.03,0,5.48-2.45,5.48-5.48s-2.45-5.48-5.48-5.48h-322.96
					c-3.03,0-5.48,2.45-5.49,5.48c0,0,0,0,0,0C-272.34-30.91-269.88-28.46-266.85-28.45C-266.86-28.45-266.85-28.45-266.85-28.45z"
					/>
			</g>
			<g id="Group_776" transform="translate(0 187.381)">
				
					<linearGradient id="Path_920_1_" gradientUnits="userSpaceOnUse" x1="-339.7243" y1="353.6287" x2="-340.7243" y2="353.6287" gradientTransform="matrix(333.933 0 0 -10.966 113506.7578 3843.9612)">
					<stop  offset="0" style="stop-color:#B5DCD1"/>
					<stop  offset="1" style="stop-color:#F4FAFB"/>
				</linearGradient>
				<path id="Path_920" class="st9" d="M-266.85-28.45H56.11c3.03,0,5.48-2.45,5.48-5.48s-2.45-5.48-5.48-5.48h-322.96
					c-3.03,0-5.48,2.45-5.49,5.48c0,0,0,0,0,0C-272.34-30.91-269.88-28.46-266.85-28.45C-266.86-28.45-266.85-28.45-266.85-28.45z"
					/>
			</g>
			<g id="Group_777" transform="translate(0 149.903)">
				
					<linearGradient id="Path_921_1_" gradientUnits="userSpaceOnUse" x1="-339.7243" y1="391.1078" x2="-340.7243" y2="391.1078" gradientTransform="matrix(333.9345 0 0 -10.969 113507.2656 4256.1294)">
					<stop  offset="0" style="stop-color:#B5DCD1"/>
					<stop  offset="1" style="stop-color:#F4FAFB"/>
				</linearGradient>
				<path id="Path_921" class="st10" d="M-266.85-28.45H56.11c3.03,0,5.48-2.46,5.48-5.48s-2.46-5.48-5.48-5.48h-322.96
					c-3.03,0-5.48,2.45-5.49,5.48c0,0,0,0,0,0C-272.34-30.91-269.88-28.45-266.85-28.45C-266.85-28.45-266.85-28.45-266.85-28.45z"
					/>
			</g>
			<g id="Group_778" transform="translate(0 112.425)">
				
					<linearGradient id="Path_922_1_" gradientUnits="userSpaceOnUse" x1="-339.7243" y1="428.5858" x2="-340.7243" y2="428.5858" gradientTransform="matrix(333.9345 0 0 -10.969 113507.2656 4667.2256)">
					<stop  offset="0" style="stop-color:#B5DCD1"/>
					<stop  offset="1" style="stop-color:#F4FAFB"/>
				</linearGradient>
				<path id="Path_922" class="st11" d="M-266.85-28.45H56.11c3.03,0,5.48-2.46,5.48-5.48s-2.46-5.48-5.48-5.48h-322.96
					c-3.03,0-5.48,2.45-5.49,5.48c0,0,0,0,0,0C-272.34-30.91-269.88-28.45-266.85-28.45C-266.86-28.45-266.85-28.45-266.85-28.45z"
					/>
			</g>
			<g id="Group_779" transform="translate(0 74.953)">
				
					<linearGradient id="Path_923_1_" gradientUnits="userSpaceOnUse" x1="-339.7243" y1="466.0578" x2="-340.7243" y2="466.0578" gradientTransform="matrix(333.9345 0 0 -10.969 113507.2656 5078.2563)">
					<stop  offset="0" style="stop-color:#B5DCD1"/>
					<stop  offset="1" style="stop-color:#F4FAFB"/>
				</linearGradient>
				<path id="Path_923" class="st12" d="M-266.85-28.45H56.11c3.03,0,5.48-2.46,5.48-5.48s-2.46-5.48-5.48-5.48h-322.96
					c-3.03,0-5.48,2.45-5.49,5.48c0,0,0,0,0,0C-272.34-30.91-269.88-28.45-266.85-28.45C-266.85-28.45-266.85-28.45-266.85-28.45z"
					/>
			</g>
			<g id="Group_780" transform="translate(0 37.478)">
				
					<linearGradient id="Path_924_1_" gradientUnits="userSpaceOnUse" x1="-339.7243" y1="503.5317" x2="-340.7243" y2="503.5317" gradientTransform="matrix(333.933 0 0 -10.966 113506.7578 5487.8003)">
					<stop  offset="0" style="stop-color:#B5DCD1"/>
					<stop  offset="1" style="stop-color:#F4FAFB"/>
				</linearGradient>
				<path id="Path_924" class="st13" d="M-266.85-28.45H56.11c3.03,0,5.48-2.45,5.48-5.48s-2.45-5.48-5.48-5.48h-322.96
					c-3.03,0-5.48,2.45-5.49,5.48c0,0,0,0,0,0C-272.34-30.91-269.88-28.46-266.85-28.45C-266.86-28.45-266.85-28.45-266.85-28.45z"
					/>
			</g>
			<g id="Group_781">
				
					<linearGradient id="Path_925_1_" gradientUnits="userSpaceOnUse" x1="-339.7243" y1="541.0097" x2="-340.7243" y2="541.0097" gradientTransform="matrix(333.933 0 0 -10.966 113506.7578 5898.7847)">
					<stop  offset="0" style="stop-color:#B5DCD1"/>
					<stop  offset="1" style="stop-color:#F4FAFB"/>
				</linearGradient>
				<path id="Path_925" class="st14" d="M-266.85-28.45H56.11c3.03,0,5.48-2.45,5.48-5.48s-2.45-5.48-5.48-5.48h-322.96
					c-3.03,0-5.48,2.45-5.49,5.48c0,0,0,0,0,0C-272.34-30.91-269.88-28.46-266.85-28.45C-266.86-28.45-266.85-28.45-266.85-28.45z"
					/>
			</g>
		</g>
	</g>
</g>
</svg>
