<?xml version="1.0" encoding="utf-8"?>
<!-- Generator: Adobe Illustrator 25.0.0, SVG Export Plug-In . SVG Version: 6.00 Build 0)  -->
<svg version="1.1" id="圖層_1" xmlns="http://www.w3.org/2000/svg" xmlns:xlink="http://www.w3.org/1999/xlink" x="0px" y="0px"
	 viewBox="0 0 15.66 22.37" style="enable-background:new 0 0 15.66 22.37;" xml:space="preserve">
<style type="text/css">
	.st0{fill:#FFFFFF;}
</style>
<path id="Icon_material-place" class="st0" d="M7.83-0.01C3.51-0.02,0,3.48,0,7.8c0,0,0,0.01,0,0.01c0,5.87,7.83,14.54,7.83,14.54
	s7.83-8.67,7.83-14.54c0-4.32-3.5-7.83-7.82-7.83C7.84-0.01,7.83-0.01,7.83-0.01z M7.83,10.61c-1.55,0-2.8-1.25-2.8-2.8
	c0-1.55,1.25-2.8,2.8-2.8c1.55,0,2.8,1.25,2.8,2.8l0,0C10.63,9.36,9.38,10.61,7.83,10.61z"/>
</svg>
