<?xml version="1.0" encoding="utf-8"?>
<!-- Generator: Adobe Illustrator 25.0.0, SVG Export Plug-In . SVG Version: 6.00 Build 0)  -->
<svg version="1.1" id="圖層_1" xmlns="http://www.w3.org/2000/svg" xmlns:xlink="http://www.w3.org/1999/xlink" x="0px" y="0px"
	 viewBox="0 0 68 68" style="enable-background:new 0 0 68 68;" xml:space="preserve">
<style type="text/css">
	.st0{fill:#FFFFFF;}
	.st1{fill:none;}
	.st2{fill:none;stroke:#FFFFFF;stroke-width:0.9932;}
</style>
<g id="arrow" transform="translate(-926 -3982.711)">
	<path id="Icon_awesome-location-arrow" class="st0" d="M973.56,4014.98l-18.68-6.88c-1.09-0.42-2.31,0.13-2.72,1.22
		c-0.29,0.77-0.11,1.64,0.46,2.22l5.41,5.41l-5.41,5.41c-0.81,0.83-0.8,2.17,0.04,2.98c0.59,0.57,1.46,0.75,2.22,0.46l18.68-6.88
		c1.09-0.51,1.56-1.8,1.05-2.88C974.39,4015.56,974.02,4015.19,973.56,4014.98L973.56,4014.98z"/>
	<g id="Ellipse_4" transform="translate(926 3982.711)">
		<circle class="st1" cx="34" cy="34.23" r="33.77"/>
		<circle class="st2" cx="34" cy="34.23" r="33.27"/>
	</g>
</g>
</svg>
