<?xml version="1.0" encoding="utf-8"?>
<!-- Generator: Adobe Illustrator 25.0.0, SVG Export Plug-In . SVG Version: 6.00 Build 0)  -->
<svg version="1.1" id="圖層_1" xmlns="http://www.w3.org/2000/svg" xmlns:xlink="http://www.w3.org/1999/xlink" x="0px" y="0px"
	 viewBox="0 0 13.19 12.86" style="enable-background:new 0 0 13.19 12.86;" xml:space="preserve">
<style type="text/css">
	.st0{fill:#1F5484;}
</style>
<path id="Icon_awesome-arrow-right" class="st0" d="M5.61,0.86l0.65-0.65C6.53-0.07,6.97-0.07,7.25,0.2c0,0,0.01,0.01,0.01,0.01
	l5.72,5.72c0.28,0.27,0.28,0.71,0.01,0.99c0,0-0.01,0.01-0.01,0.01l-5.73,5.73c-0.27,0.28-0.71,0.28-0.99,0.01
	c0,0-0.01-0.01-0.01-0.01L5.6,12c-0.28-0.28-0.27-0.72,0-1c0,0,0.01-0.01,0.01-0.01l3.55-3.38H0.7C0.32,7.61,0,7.3,0,6.92
	C0,6.91,0,6.91,0,6.9V5.95c0-0.39,0.31-0.7,0.7-0.7c0,0,0,0,0.01,0h8.46L5.62,1.87c-0.28-0.26-0.3-0.71-0.03-0.99
	C5.59,0.87,5.6,0.87,5.61,0.86z"/>
</svg>
