<?xml version="1.0" encoding="utf-8"?>
<!-- Generator: Adobe Illustrator 25.0.0, SVG Export Plug-In . SVG Version: 6.00 Build 0)  -->
<svg version="1.1" id="圖層_1" xmlns="http://www.w3.org/2000/svg" xmlns:xlink="http://www.w3.org/1999/xlink" x="0px" y="0px"
	 viewBox="0 0 22.97 20.68" style="enable-background:new 0 0 22.97 20.68;" xml:space="preserve">
<style type="text/css">
	.st0{fill:#FFFFFF;}
</style>
<path id="Icon_material-print" class="st0" d="M19.53,5.74H3.44C1.54,5.74,0,7.28,0,9.18c0,0,0,0.01,0,0.01v6.89h4.59v4.59h13.78
	v-4.6h4.59V9.19c0-1.9-1.54-3.44-3.44-3.45C19.53,5.74,19.53,5.74,19.53,5.74z M16.08,18.38H6.89v-5.74h9.19L16.08,18.38z
	 M19.53,10.34c-0.63,0-1.15-0.51-1.15-1.15s0.51-1.15,1.15-1.15s1.15,0.51,1.15,1.15C20.67,9.82,20.16,10.34,19.53,10.34z M18.38,0
	H4.59v4.6h13.78V0z"/>
</svg>
