<?xml version="1.0" encoding="utf-8"?>
<!-- Generator: Adobe Illustrator 25.0.0, SVG Export Plug-In . SVG Version: 6.00 Build 0)  -->
<svg version="1.1" id="圖層_1" xmlns="http://www.w3.org/2000/svg" xmlns:xlink="http://www.w3.org/1999/xlink" x="0px" y="0px"
	 viewBox="0 0 57 56" style="enable-background:new 0 0 57 56;" xml:space="preserve">
<style type="text/css">
	.st0{fill:#90D3ED;}
	.st1{fill:#344E56;}
</style>
<circle class="st0" cx="28.5" cy="28" r="28"/>
<path id="Icon_material-add-shopping-cart" class="st1" d="M28.39,24.6h2.72v-4.08h4.08V17.8h-4.08v-4.08h-2.72v4.08h-4.08v2.72
	h4.08V24.6z M22.95,36.84c-1.5,0-2.72,1.22-2.72,2.72c0,1.5,1.22,2.72,2.72,2.72s2.72-1.22,2.72-2.72l0,0
	C25.67,38.06,24.46,36.84,22.95,36.84C22.96,36.84,22.95,36.84,22.95,36.84z M36.55,36.84c-1.5,0-2.72,1.22-2.72,2.72
	c0,1.5,1.22,2.72,2.72,2.72s2.72-1.22,2.72-2.72v0C39.27,38.06,38.06,36.84,36.55,36.84C36.56,36.84,36.55,36.84,36.55,36.84
	L36.55,36.84z M23.18,32.42l0.04-0.16l1.22-2.22h10.13c0.99,0,1.9-0.53,2.38-1.4l5.25-9.53l-2.37-1.31h-0.01l-1.5,2.72l-3.75,6.8
	h-9.55l-0.18-0.37l-3.05-6.43l-1.29-2.72l-1.28-2.72h-4.45v2.72h2.72l4.9,10.32l-1.84,3.34c-0.22,0.4-0.34,0.85-0.34,1.31
	c0,1.5,1.22,2.72,2.72,2.72h16.32v-2.72H23.52C23.33,32.76,23.18,32.61,23.18,32.42z"/>
</svg>
