<?xml version="1.0" encoding="utf-8"?>
<!-- Generator: Adobe Illustrator 25.0.0, SVG Export Plug-In . SVG Version: 6.00 Build 0)  -->
<svg version="1.1" id="圖層_1" xmlns="http://www.w3.org/2000/svg" xmlns:xlink="http://www.w3.org/1999/xlink" x="0px" y="0px"
	 viewBox="0 0 13.03 13.03" style="enable-background:new 0 0 13.03 13.03;" xml:space="preserve">
<style type="text/css">
	.st0{fill:#111111;}
</style>
<path id="Icon_material-shopping-cart" class="st0" d="M3.91,10.43c-0.72,0-1.3,0.58-1.3,1.3c0,0.72,0.58,1.3,1.3,1.3
	s1.3-0.58,1.3-1.3S4.63,10.43,3.91,10.43L3.91,10.43z M0,0v1.3h1.3l2.35,4.95l-0.88,1.6C2.66,8.04,2.61,8.26,2.61,8.48
	c0,0.72,0.58,1.3,1.3,1.3h7.82v-1.3H4.18c-0.09,0-0.16-0.07-0.16-0.16c0,0,0,0,0,0l0.02-0.08l0.59-1.06h4.85
	c0.47,0,0.91-0.26,1.14-0.67l2.33-4.23c0.05-0.1,0.08-0.2,0.08-0.31c0-0.36-0.29-0.65-0.65-0.65H2.74L2.13,0H0z M10.42,10.43
	c-0.72,0-1.3,0.58-1.3,1.3c0,0.72,0.58,1.3,1.3,1.3s1.3-0.58,1.3-1.3S11.14,10.43,10.42,10.43C10.42,10.43,10.42,10.43,10.42,10.43z
	"/>
</svg>
