<?xml version="1.0" encoding="utf-8"?>
<!-- Generator: Adobe Illustrator 25.0.0, SVG Export Plug-In . SVG Version: 6.00 Build 0)  -->
<svg version="1.1" id="圖層_1" xmlns="http://www.w3.org/2000/svg" xmlns:xlink="http://www.w3.org/1999/xlink" x="0px" y="0px"
	 viewBox="0 0 60 60" style="enable-background:new 0 0 60 60;" xml:space="preserve">
<style type="text/css">
	.st0{fill:none;}
	.st1{fill:none;stroke:#FFFFFF;stroke-width:1.5;}
	.st2{fill:#FFFFFF;}
</style>
<g id="Ellipse_3">
	<circle class="st0" cx="30" cy="30" r="30"/>
	<circle class="st1" cx="30" cy="30" r="29.25"/>
</g>
<path id="Icon_material-add-shopping-cart" class="st2" d="M28.89,27.43h2.85v-4.28h4.28V20.3h-4.28v-4.28h-2.85v4.28h-4.28v2.85
	h4.28L28.89,27.43z M23.18,40.27c-1.58,0-2.85,1.28-2.85,2.85s1.28,2.85,2.85,2.85s2.85-1.28,2.85-2.85
	C26.04,41.55,24.76,40.28,23.18,40.27C23.19,40.27,23.18,40.27,23.18,40.27z M37.45,40.27c-1.58,0-2.85,1.28-2.85,2.85
	s1.28,2.85,2.85,2.85s2.85-1.28,2.85-2.85C40.3,41.55,39.03,40.28,37.45,40.27C37.45,40.27,37.45,40.27,37.45,40.27z M23.42,35.64
	l0.04-0.17l1.28-2.33h10.63c1.04,0,2-0.56,2.5-1.47l5.51-10L40.9,20.3h-0.01l-1.57,2.85l-3.94,7.13H25.36l-0.19-0.39l-3.2-6.75
	l-1.35-2.85l-1.34-2.85h-4.66v2.85h2.85l5.14,10.83l-1.93,3.49c-0.24,0.42-0.36,0.89-0.36,1.37c0,1.57,1.28,2.85,2.85,2.85H40.3
	v-2.85H23.78C23.58,35.99,23.42,35.83,23.42,35.64z"/>
</svg>
