<?xml version="1.0" encoding="utf-8"?>
<!-- Generator: Adobe Illustrator 25.0.0, SVG Export Plug-In . SVG Version: 6.00 Build 0)  -->
<svg version="1.1" id="圖層_1" xmlns="http://www.w3.org/2000/svg" xmlns:xlink="http://www.w3.org/1999/xlink" x="0px" y="0px"
	 viewBox="0 0 20.01 20.01" style="enable-background:new 0 0 20.01 20.01;" xml:space="preserve">
<style type="text/css">
	.st0{fill:#FFFFFF;}
</style>
<path id="Icon_awesome-phone-alt" class="st0" d="M19.44,14.14l-4.38-1.88c-0.38-0.16-0.83-0.05-1.09,0.27l-1.94,2.36
	c-3.04-1.43-5.49-3.88-6.93-6.92l2.37-1.94C7.8,5.77,7.91,5.33,7.74,4.94L5.87,0.57C5.68,0.15,5.23-0.08,4.79,0.02L0.73,0.96
	C0.3,1.06,0,1.44,0,1.88c0,10.01,8.12,18.13,18.13,18.14c0,0,0,0,0,0c0.44,0,0.82-0.3,0.92-0.73l0.94-4.07
	C20.09,14.77,19.86,14.32,19.44,14.14L19.44,14.14z"/>
</svg>
