<?xml version="1.0" encoding="utf-8"?>
<!-- Generator: Adobe Illustrator 25.0.0, SVG Export Plug-In . SVG Version: 6.00 Build 0)  -->
<svg version="1.1" id="圖層_1" xmlns="http://www.w3.org/2000/svg" xmlns:xlink="http://www.w3.org/1999/xlink" x="0px" y="0px"
	 viewBox="0 0 1576 351" style="enable-background:new 0 0 1576 351;" xml:space="preserve">
<style type="text/css">
	.st0{enable-background:new    ;}
	.st1{fill:#F8F9F9;}
</style>
<g class="st0">
	<path class="st1" d="M218.48,272.56h-35.67v-48.3H57.4v48.3H21.73v-98.38c0-14.36,2.47-27.58,7.41-39.65s11.8-22.46,20.58-31.15
		c8.78-8.69,19.16-15.46,31.15-20.31c11.98-4.85,25.06-7.27,39.24-7.27h80.4c2.47,0,4.8,0.46,7,1.37c2.2,0.92,4.12,2.2,5.76,3.84
		s2.93,3.57,3.84,5.76c0.91,2.2,1.37,4.53,1.37,7V272.56z M57.4,188.59h125.41v-77.11h-62.7c-1.1,0-3.41,0.16-6.93,0.48
		c-3.52,0.32-7.59,1.12-12.21,2.4c-4.62,1.28-9.49,3.25-14.61,5.9c-5.12,2.65-9.83,6.31-14.13,10.98
		c-4.3,4.67-7.84,10.5-10.63,17.49c-2.79,7-4.18,15.48-4.18,25.45V188.59z"/>
	<path class="st1" d="M433.54,222.48c0,3.38-0.39,6.95-1.17,10.7c-0.78,3.75-1.99,7.48-3.64,11.18c-1.65,3.71-3.77,7.25-6.38,10.63
		c-2.61,3.38-5.76,6.38-9.47,8.99c-3.71,2.61-7.98,4.69-12.83,6.24c-4.85,1.56-10.34,2.33-16.46,2.33h-64.35
		c-3.39,0-6.95-0.39-10.7-1.17c-3.75-0.78-7.48-1.99-11.18-3.64c-3.71-1.65-7.25-3.77-10.63-6.38c-3.39-2.61-6.38-5.76-8.99-9.47
		c-2.61-3.71-4.69-8-6.24-12.9c-1.56-4.89-2.33-10.4-2.33-16.53V61.54h35.67v160.94c0,4.39,1.37,7.89,4.12,10.5
		c2.74,2.61,6.17,3.91,10.29,3.91h64.35c4.48,0,7.98-1.33,10.5-3.98c2.52-2.65,3.77-6.13,3.77-10.43v-48.3
		c0-4.48-1.33-7.98-3.98-10.5c-2.65-2.51-6.08-3.77-10.29-3.77h-64.35v-35.67h64.35c3.38,0,6.95,0.39,10.7,1.17
		c3.75,0.78,7.48,1.99,11.18,3.64c3.7,1.65,7.25,3.77,10.63,6.38c3.38,2.61,6.36,5.76,8.92,9.47c2.56,3.7,4.62,7.98,6.17,12.83
		c1.55,4.85,2.33,10.34,2.33,16.46V222.48z"/>
	<path class="st1" d="M639.4,222.48c0,6.13-0.78,11.64-2.33,16.53c-1.56,4.89-3.61,9.19-6.17,12.9c-2.56,3.7-5.54,6.86-8.92,9.47
		c-3.39,2.61-6.93,4.73-10.63,6.38c-3.71,1.65-7.46,2.86-11.25,3.64c-3.8,0.78-7.39,1.17-10.77,1.17h-64.35
		c-4.94,0-10.34-0.87-16.19-2.61c-5.85-1.74-11.27-4.6-16.26-8.58c-4.99-3.98-9.15-9.15-12.49-15.5
		c-3.34-6.36-5.01-14.15-5.01-23.39v-48.3c0-9.15,1.67-16.9,5.01-23.26c3.34-6.36,7.5-11.53,12.49-15.5
		c4.98-3.98,10.4-6.84,16.26-8.58c5.85-1.74,11.25-2.61,16.19-2.61h64.35c9.15,0,16.92,1.65,23.33,4.94
		c6.4,3.29,11.57,7.43,15.5,12.42c3.93,4.99,6.79,10.41,8.58,16.26c1.78,5.85,2.68,11.3,2.68,16.33V222.48z M603.73,174.46
		c0-4.94-1.23-8.6-3.7-10.98c-2.47-2.38-6.04-3.57-10.7-3.57h-64.08c-4.76,0-8.37,1.21-10.84,3.64c-2.47,2.42-3.7,5.97-3.7,10.63
		v48.3c0,4.66,1.23,8.23,3.7,10.7c2.47,2.47,6.08,3.71,10.84,3.71h64.08c4.85,0,8.46-1.23,10.84-3.71c2.38-2.47,3.57-6.04,3.57-10.7
		V174.46z"/>
	<path class="st1" d="M845.96,254.59c0,2.56-0.46,4.94-1.37,7.13s-2.17,4.1-3.77,5.69c-1.6,1.6-3.48,2.86-5.62,3.77
		c-2.15,0.92-4.46,1.37-6.93,1.37h-80.68c-4.39,0-9.08-0.5-14.06-1.51c-4.99-1-9.9-2.63-14.75-4.87c-4.85-2.24-9.54-5.08-14.06-8.51
		c-4.53-3.43-8.49-7.59-11.87-12.49c-3.39-4.89-6.11-10.54-8.16-16.95c-2.06-6.4-3.09-13.63-3.09-21.68v-82.32h35.67v82.32
		c0,4.66,0.8,8.85,2.4,12.55c1.6,3.71,3.77,6.88,6.52,9.54c2.74,2.65,5.97,4.69,9.67,6.11c3.7,1.42,7.7,2.13,12.01,2.13h62.43
		V124.24h35.67V254.59z"/>
	<path class="st1" d="M1028.36,159.92h-62.29v112.65h-36.09V159.92h-46.38v-35.67h46.38V75.81h36.09v48.43h62.29V159.92z"/>
	<path class="st1" d="M1365.86,254.59c0,2.56-0.46,4.94-1.37,7.13c-0.92,2.2-2.2,4.1-3.84,5.69c-1.65,1.6-3.57,2.86-5.76,3.77
		c-2.2,0.92-4.53,1.37-7,1.37h-80.4c-7.59,0-15.28-0.82-23.05-2.47c-7.78-1.65-15.3-4.18-22.57-7.62
		c-7.27-3.43-14.11-7.8-20.51-13.1c-6.4-5.3-12-11.59-16.81-18.87c-4.8-7.27-8.58-15.59-11.32-24.97
		c-2.74-9.38-4.12-19.83-4.12-31.35V75.81h35.67v98.38c0,10.06,1.39,18.57,4.18,25.52c2.79,6.95,6.33,12.76,10.63,17.43
		c4.3,4.67,9.01,8.32,14.13,10.98c5.12,2.65,9.99,4.62,14.61,5.9c4.62,1.28,8.69,2.08,12.21,2.4c3.52,0.32,5.83,0.48,6.93,0.48h62.7
		V75.81h35.67V254.59z"/>
	<path class="st1" d="M1560.06,222.48c0,6.13-0.78,11.64-2.33,16.53c-1.56,4.89-3.61,9.19-6.17,12.9c-2.56,3.7-5.54,6.86-8.92,9.47
		c-3.38,2.61-6.93,4.73-10.63,6.38c-3.7,1.65-7.46,2.86-11.25,3.64c-3.8,0.78-7.39,1.17-10.77,1.17h-96.59v-35.67h96.32
		c4.85,0,8.51-1.23,10.98-3.71c2.47-2.47,3.71-6.04,3.71-10.7c-0.46-9.51-5.26-14.27-14.41-14.27h-55.29
		c-7.87,0-14.54-1.37-20.03-4.12s-9.95-6.17-13.38-10.29c-3.43-4.12-5.9-8.55-7.41-13.31c-1.51-4.75-2.26-9.19-2.26-13.31
		c0-7.96,1.42-14.66,4.25-20.1c2.83-5.44,6.4-9.86,10.7-13.24c4.3-3.38,8.96-5.83,14-7.34c5.03-1.51,9.74-2.26,14.13-2.26h87.67
		v35.67h-87.4c-1.83,0-3.27,0.21-4.32,0.62c-1.05,0.41-1.83,0.96-2.33,1.65c-0.5,0.69-0.8,1.42-0.89,2.2
		c-0.09,0.78-0.14,1.53-0.14,2.26c0.09,1.46,0.37,2.61,0.82,3.43c0.46,0.82,1.03,1.42,1.71,1.78c0.69,0.37,1.46,0.57,2.33,0.62
		c0.87,0.05,1.71,0.07,2.54,0.07h55.29c9.15,0,16.92,1.65,23.33,4.94c6.4,3.29,11.57,7.43,15.5,12.42
		c3.93,4.99,6.79,10.41,8.58,16.26C1559.17,212.01,1560.06,217.45,1560.06,222.48z"/>
</g>
</svg>
