<?xml version="1.0" encoding="utf-8"?>
<!-- Generator: Adobe Illustrator 25.0.0, SVG Export Plug-In . SVG Version: 6.00 Build 0)  -->
<svg version="1.1" id="圖層_1" xmlns="http://www.w3.org/2000/svg" xmlns:xlink="http://www.w3.org/1999/xlink" x="0px" y="0px"
	 viewBox="0 0 1665 220" style="enable-background:new 0 0 1665 220;" xml:space="preserve">
<style type="text/css">
	.st0{enable-background:new    ;}
	.st1{fill:#FFFFFF;}
</style>
<g class="st0">
	<path class="st1" d="M169.44,180.36c0,1.92-0.36,3.71-1.08,5.36c-0.72,1.65-1.68,3.07-2.88,4.28c-1.2,1.2-2.63,2.15-4.28,2.83
		c-1.65,0.69-3.4,1.03-5.25,1.03c-1.65,0-3.31-0.31-5-0.93c-1.68-0.62-3.18-1.61-4.48-2.99L48.59,87.74V191.8H21.8V55.49
		c0-2.75,0.77-5.24,2.32-7.47c1.55-2.23,3.52-3.9,5.92-5c2.54-1.03,5.15-1.29,7.83-0.77c2.68,0.51,4.98,1.77,6.9,3.76l97.88,102.1
		V44.06h26.79V180.36z"/>
	<path class="st1" d="M327.22,117.31c0,3.71-0.65,7.71-1.96,12c-1.31,4.29-3.42,8.28-6.34,11.95c-2.92,3.68-6.73,6.75-11.44,9.22
		c-4.71,2.47-10.42,3.71-17.15,3.71h-48.32v-25.45h48.32c3.64,0,6.46-1.12,8.45-3.35c1.99-2.23,2.99-5,2.99-8.29
		c0-3.5-1.12-6.25-3.35-8.24c-2.23-1.99-4.93-2.99-8.09-2.99h-48.32c-3.64,0-6.46,1.12-8.45,3.35c-1.99,2.23-2.99,5-2.99,8.29v37.4
		c0,3.57,1.12,6.35,3.35,8.34c2.23,1.99,5,2.99,8.29,2.99h48.11v25.55h-48.32c-3.71,0-7.71-0.65-12-1.96
		c-4.29-1.3-8.28-3.42-11.95-6.34c-3.67-2.92-6.75-6.73-9.22-11.44c-2.47-4.7-3.71-10.42-3.71-17.15v-37.6c0-3.71,0.65-7.71,1.96-12
		c1.3-4.29,3.42-8.28,6.34-11.95c2.92-3.67,6.73-6.75,11.44-9.22c4.7-2.47,10.42-3.71,17.15-3.71h48.32c3.71,0,7.71,0.65,12,1.96
		c4.29,1.31,8.28,3.42,11.95,6.34c3.67,2.92,6.75,6.73,9.22,11.44C325.98,104.86,327.22,110.58,327.22,117.31z"/>
	<path class="st1" d="M539.19,80.43c-4.26,9.55-8.86,18.94-13.81,28.18c-4.95,9.24-10.11,17.98-15.51,26.22
		c-5.39,8.24-10.9,15.85-16.54,22.82c-5.63,6.97-11.21,12.98-16.74,18.03c-5.53,5.05-10.92,9-16.18,11.85
		c-5.25,2.85-10.22,4.28-14.89,4.28c-1.92,0-3.71-0.34-5.36-1.03c-1.65-0.69-3.09-1.63-4.33-2.83c-1.24-1.2-2.2-2.63-2.88-4.28
		c-0.69-1.65-1.03-3.43-1.03-5.36v-49.97l-53.16,59.45c-1.38,1.37-2.87,2.39-4.48,3.04c-1.61,0.65-3.28,0.98-5,0.98
		c-1.85,0-3.59-0.34-5.2-1.03c-1.61-0.69-3.04-1.63-4.28-2.83c-1.24-1.2-2.22-2.63-2.94-4.28c-0.72-1.65-1.08-3.43-1.08-5.36V80.43
		h26.79v63.46l53.37-59.65c1.92-1.92,4.21-3.14,6.85-3.66c2.64-0.52,5.24-0.22,7.78,0.88c2.54,1.03,4.55,2.66,6.03,4.89
		c1.48,2.23,2.21,4.69,2.21,7.37v63.67c5.77-5.56,10.99-11.44,15.66-17.62c4.67-6.18,9.01-12.55,13.03-19.11
		c4.02-6.56,7.79-13.22,11.33-19.99c3.54-6.76,6.99-13.51,10.35-20.24H539.19z"/>
	<path class="st1" d="M786.12,105.87c0,6.11-0.76,11.57-2.27,16.38c-1.51,4.81-3.55,9.05-6.13,12.72c-2.58,3.67-5.55,6.82-8.91,9.43
		c-3.37,2.61-6.89,4.74-10.56,6.39c-3.67,1.65-7.38,2.85-11.13,3.61c-3.74,0.76-7.26,1.13-10.56,1.13h-60.58v-26.79h60.58
		c3.43-0.27,6.54-0.98,9.32-2.11c2.78-1.13,5.17-2.66,7.16-4.58c1.99-1.92,3.54-4.24,4.64-6.95c1.1-2.71,1.65-5.78,1.65-9.22V93.72
		c-0.34-3.36-1.07-6.46-2.16-9.27c-1.1-2.82-2.59-5.22-4.48-7.21c-1.89-1.99-4.17-3.55-6.85-4.69c-2.68-1.13-5.77-1.7-9.27-1.7
		h-60.37c-3.57,0-6.28,0.93-8.14,2.78s-2.78,4.53-2.78,8.04V191.8h-26.79V81.66c0-6.87,1.25-12.71,3.76-17.51
		c2.51-4.81,5.63-8.69,9.38-11.64c3.74-2.95,7.81-5.1,12.21-6.44c4.39-1.34,8.45-2.01,12.16-2.01h60.58
		c6.04,0,11.47,0.77,16.28,2.32c4.81,1.54,9.05,3.61,12.72,6.18c3.67,2.58,6.8,5.55,9.38,8.91c2.58,3.37,4.7,6.89,6.39,10.56
		c1.68,3.68,2.9,7.38,3.66,11.13c0.75,3.75,1.13,7.26,1.13,10.56V105.87z"/>
	<path class="st1" d="M913.51,107.21h-60.27c-3.64,0-6.39,0.91-8.24,2.73c-1.85,1.82-2.78,4.48-2.78,7.98v73.87h-26.79v-73.87
		c0-4.6,0.58-8.72,1.75-12.36c1.17-3.64,2.73-6.85,4.69-9.63c1.96-2.78,4.21-5.15,6.75-7.11c2.54-1.96,5.2-3.55,7.98-4.79
		c2.78-1.24,5.6-2.15,8.45-2.73c2.85-0.58,5.51-0.88,7.99-0.88h60.48V107.21z"/>
	<path class="st1" d="M1062.42,154.19c0,4.6-0.58,8.74-1.75,12.42c-1.17,3.68-2.71,6.9-4.64,9.68c-1.92,2.78-4.16,5.15-6.7,7.11
		c-2.54,1.96-5.2,3.55-7.98,4.79c-2.78,1.24-5.6,2.15-8.45,2.73c-2.85,0.58-5.55,0.88-8.09,0.88H976.5c-3.71,0-7.76-0.65-12.16-1.96
		c-4.4-1.3-8.47-3.45-12.21-6.44c-3.74-2.99-6.87-6.87-9.38-11.64c-2.51-4.77-3.76-10.63-3.76-17.57v-36.27
		c0-6.87,1.25-12.69,3.76-17.46c2.51-4.77,5.63-8.65,9.38-11.64c3.74-2.99,7.81-5.13,12.21-6.44c4.39-1.3,8.45-1.96,12.16-1.96
		h48.32c6.87,0,12.71,1.24,17.51,3.71c4.81,2.47,8.69,5.58,11.64,9.32c2.95,3.75,5.1,7.81,6.44,12.21c1.34,4.4,2.01,8.48,2.01,12.26
		V154.19z M1035.64,118.13c0-3.71-0.93-6.46-2.78-8.24c-1.85-1.79-4.53-2.68-8.04-2.68H976.7c-3.57,0-6.28,0.91-8.14,2.73
		c-1.85,1.82-2.78,4.48-2.78,7.98v36.27c0,3.5,0.93,6.18,2.78,8.04c1.86,1.85,4.57,2.78,8.14,2.78h48.11c3.64,0,6.35-0.93,8.14-2.78
		c1.79-1.86,2.68-4.53,2.68-8.04V118.13z"/>
	<path class="st1" d="M1217.93,154.19c0,4.6-0.58,8.74-1.75,12.42c-1.17,3.68-2.71,6.9-4.64,9.68c-1.92,2.78-4.16,5.15-6.7,7.11
		c-2.54,1.96-5.2,3.55-7.99,4.79c-2.78,1.24-5.6,2.15-8.45,2.73c-2.85,0.58-5.55,0.88-8.09,0.88h-48.32c-4.6,0-8.72-0.58-12.36-1.75
		c-3.64-1.17-6.85-2.73-9.63-4.69c-2.78-1.96-5.15-4.21-7.11-6.75c-1.96-2.54-3.55-5.2-4.79-7.98c-1.24-2.78-2.15-5.6-2.73-8.45
		c-0.58-2.85-0.88-5.51-0.88-7.99v-36.27c0-6.87,1.25-12.69,3.76-17.46c2.51-4.77,5.63-8.65,9.38-11.64
		c3.74-2.99,7.81-5.13,12.21-6.44c4.39-1.3,8.45-1.96,12.16-1.96h48.32v26.79h-48.11c-3.57,0-6.29,0.91-8.14,2.73
		c-1.86,1.82-2.78,4.48-2.78,7.98v36.06c0,3.64,0.91,6.39,2.73,8.24c1.82,1.85,4.48,2.78,7.98,2.78h48.32
		c3.64,0,6.35-0.93,8.14-2.78c1.79-1.86,2.68-4.53,2.68-8.04V33.34h26.79V154.19z"/>
	<path class="st1" d="M1375.81,178.3c0,1.92-0.34,3.71-1.03,5.36c-0.69,1.65-1.63,3.07-2.83,4.28c-1.2,1.2-2.61,2.15-4.22,2.83
		c-1.61,0.69-3.35,1.03-5.2,1.03h-60.58c-3.3,0-6.82-0.38-10.56-1.13c-3.75-0.76-7.44-1.97-11.08-3.66
		c-3.64-1.68-7.16-3.81-10.56-6.39c-3.4-2.58-6.37-5.7-8.91-9.38c-2.54-3.67-4.58-7.92-6.13-12.72c-1.55-4.81-2.32-10.23-2.32-16.28
		V80.43h26.79v61.82c0,3.5,0.6,6.65,1.8,9.43c1.2,2.78,2.83,5.17,4.89,7.16c2.06,1.99,4.48,3.52,7.26,4.58
		c2.78,1.07,5.79,1.6,9.02,1.6h46.88V80.43h26.79V178.3z"/>
	<path class="st1" d="M1519.37,191.8h-72.63c-3.71,0-7.76-0.65-12.16-1.96c-4.4-1.3-8.47-3.45-12.21-6.44
		c-3.74-2.99-6.87-6.87-9.38-11.64c-2.51-4.77-3.76-10.63-3.76-17.57v-36.27c0-2.54,0.29-5.22,0.88-8.03
		c0.58-2.82,1.49-5.62,2.73-8.4c1.24-2.78,2.83-5.44,4.79-7.98c1.96-2.54,4.33-4.77,7.11-6.7c2.78-1.92,5.99-3.47,9.63-4.64
		c3.64-1.17,7.76-1.75,12.36-1.75h72.63v26.79h-72.63c-3.5,0-6.17,0.89-7.98,2.68c-1.82,1.79-2.73,4.53-2.73,8.24v36.06
		c0,3.5,0.93,6.18,2.78,8.04c1.86,1.85,4.57,2.78,8.14,2.78h72.43V191.8z"/>
	<path class="st1" d="M1653.35,107.21h-46.78v84.59h-27.1v-84.59h-34.82V80.43h34.82V44.06h27.1v36.37h46.78V107.21z"/>
</g>
</svg>
