<?xml version="1.0" encoding="utf-8"?>
<!-- Generator: Adobe Illustrator 25.0.0, SVG Export Plug-In . SVG Version: 6.00 Build 0)  -->
<svg version="1.1" id="圖層_1" xmlns="http://www.w3.org/2000/svg" xmlns:xlink="http://www.w3.org/1999/xlink" x="0px" y="0px"
	 viewBox="0 0 19.97 19.97" style="enable-background:new 0 0 19.97 19.97;" xml:space="preserve">
<style type="text/css">
	.st0{fill:#111111;}
</style>
<path id="Icon_metro-earth" class="st0" d="M9.98,0C4.47,0,0,4.47,0,9.99s4.47,9.99,9.99,9.99s9.99-4.47,9.99-9.99S15.5,0,9.98,0z
	 M9.98,18.72c-1.19,0-2.37-0.24-3.46-0.71l4.55-5.12c0.1-0.11,0.16-0.26,0.16-0.41v-1.87c0-0.34-0.28-0.62-0.62-0.62
	c-2.2,0-4.53-2.29-4.55-2.31C5.94,7.55,5.78,7.49,5.62,7.49h-2.5c-0.34,0-0.62,0.28-0.62,0.62v3.74c0,0.24,0.13,0.45,0.34,0.56
	l2.15,1.08v3.66c-3.5-2.44-4.73-7.06-2.9-10.92h2.28c0.17,0,0.32-0.07,0.44-0.18l2.5-2.5c0.12-0.12,0.18-0.28,0.18-0.44V1.61
	c2.1-0.62,4.36-0.44,6.33,0.52c-0.08,0.07-0.16,0.14-0.24,0.22c-1.46,1.46-1.46,3.83,0,5.3c0.7,0.7,1.65,1.1,2.65,1.1
	c0.06,0,0.12,0,0.19,0c0.56,2.4,0.5,4.89-0.16,7.26c-0.01,0.03-0.01,0.07-0.02,0.1C14.59,17.78,12.34,18.73,9.98,18.72L9.98,18.72z"
	/>
</svg>
