<?xml version="1.0" encoding="utf-8"?>
<!-- Generator: Adobe Illustrator 25.0.0, SVG Export Plug-In . SVG Version: 6.00 Build 0)  -->
<svg version="1.1" id="圖層_1" xmlns="http://www.w3.org/2000/svg" xmlns:xlink="http://www.w3.org/1999/xlink" x="0px" y="0px"
	 viewBox="0 0 17.56 15.81" style="enable-background:new 0 0 17.56 15.81;" xml:space="preserve">
<style type="text/css">
	.st0{fill:#FFFFFF;}
</style>
<path id="Icon_material-print" class="st0" d="M14.93,4.39H2.63C1.18,4.39,0,5.57,0,7.02c0,0,0,0,0,0.01v5.27h3.51v3.51h10.54V12.3
	h3.51V7.03C17.56,5.57,16.39,4.39,14.93,4.39C14.93,4.39,14.93,4.39,14.93,4.39z M12.29,14.05H5.27V9.66h7.03L12.29,14.05z
	 M14.93,7.9c-0.48,0-0.88-0.39-0.88-0.88s0.39-0.88,0.88-0.88c0.48,0,0.88,0.39,0.88,0.88C15.8,7.51,15.41,7.9,14.93,7.9z M14.05,0
	H3.51v3.51h10.54V0z"/>
</svg>
