<?xml version="1.0" encoding="utf-8"?>
<!-- Generator: Adobe Illustrator 25.0.0, SVG Export Plug-In . SVG Version: 6.00 Build 0)  -->
<svg version="1.1" id="圖層_1" xmlns="http://www.w3.org/2000/svg" xmlns:xlink="http://www.w3.org/1999/xlink" x="0px" y="0px"
	 viewBox="0 0 60 60" style="enable-background:new 0 0 60 60;" xml:space="preserve">
<style type="text/css">
	.st0{fill:none;}
	.st1{fill:none;stroke:#FFFFFF;stroke-width:1.5;}
	.st2{fill:#FFFFFF;}
</style>
<g id="pic_2" transform="translate(-1624 -1613)">
	<g id="Ellipse_3" transform="translate(1624 1613)">
		<circle class="st0" cx="30" cy="29.95" r="30"/>
		<circle class="st1" cx="30" cy="29.95" r="29.25"/>
	</g>
	<path id="Icon_material-add-shopping-cart" class="st2" d="M1652.89,1640.38h2.85v-4.28h4.28v-2.85h-4.28v-4.28h-2.85v4.28h-4.28
		v2.85h4.28V1640.38z M1647.18,1653.22c-1.58,0-2.85,1.28-2.85,2.85s1.28,2.85,2.85,2.85c1.58,0,2.85-1.28,2.85-2.85
		C1650.04,1654.5,1648.76,1653.23,1647.18,1653.22C1647.19,1653.22,1647.18,1653.22,1647.18,1653.22z M1661.45,1653.22
		c-1.58,0-2.85,1.28-2.85,2.85s1.28,2.85,2.85,2.85c1.58,0,2.85-1.28,2.85-2.85C1664.3,1654.5,1663.03,1653.23,1661.45,1653.22
		C1661.45,1653.22,1661.45,1653.22,1661.45,1653.22z M1647.42,1648.59l0.04-0.17l1.28-2.32h10.63c1.04,0,2-0.56,2.5-1.47l5.51-10
		l-2.49-1.37h-0.01l-1.57,2.85l-3.94,7.13h-10.02l-0.18-0.39l-3.2-6.75l-1.35-2.85l-1.34-2.85h-4.67v2.85h2.85l5.14,10.83
		l-1.93,3.49c-0.24,0.42-0.36,0.89-0.36,1.37c0,1.57,1.28,2.85,2.85,2.85h17.12v-2.85h-16.52
		C1647.58,1648.94,1647.42,1648.78,1647.42,1648.59z"/>
</g>
</svg>
