<?xml version="1.0" encoding="utf-8"?>
<!-- Generator: Adobe Illustrator 25.0.0, SVG Export Plug-In . SVG Version: 6.00 Build 0)  -->
<svg version="1.1" id="圖層_1" xmlns="http://www.w3.org/2000/svg" xmlns:xlink="http://www.w3.org/1999/xlink" x="0px" y="0px"
	 viewBox="0 0 15.39 15.39" style="enable-background:new 0 0 15.39 15.39;" xml:space="preserve">
<style type="text/css">
	.st0{fill:#111111;}
</style>
<path id="Icon_material-shopping-cart" class="st0" d="M4.62,12.31c-0.85,0-1.54,0.69-1.54,1.54s0.69,1.54,1.54,1.54
	s1.54-0.69,1.54-1.54l0,0C6.16,13,5.47,12.31,4.62,12.31C4.62,12.31,4.62,12.31,4.62,12.31z M0,0v1.54h1.54l2.77,5.84L3.27,9.26
	C3.14,9.49,3.08,9.74,3.08,10c0,0.85,0.69,1.54,1.54,1.54h9.23V10H4.94c-0.11,0-0.19-0.08-0.19-0.19c0,0,0,0,0,0l0.02-0.09
	l0.69-1.25h5.74c0.56,0,1.08-0.3,1.35-0.79l2.75-4.99c0.06-0.11,0.09-0.24,0.09-0.37c0-0.42-0.35-0.77-0.77-0.77H3.24L2.51,0H0z
	 M12.31,12.31c-0.85,0-1.54,0.69-1.54,1.54s0.69,1.54,1.54,1.54c0.85,0,1.54-0.69,1.54-1.54c0,0,0,0,0,0
	C13.85,13,13.16,12.31,12.31,12.31C12.31,12.31,12.31,12.31,12.31,12.31z"/>
</svg>
