<?xml version="1.0" encoding="utf-8"?>
<!-- Generator: Adobe Illustrator 25.0.0, SVG Export Plug-In . SVG Version: 6.00 Build 0)  -->
<svg version="1.1" id="圖層_1" xmlns="http://www.w3.org/2000/svg" xmlns:xlink="http://www.w3.org/1999/xlink" x="0px" y="0px"
	 viewBox="0 0 15.76 15.76" style="enable-background:new 0 0 15.76 15.76;" xml:space="preserve">
<style type="text/css">
	.st0{fill:#FFFFFF;}
</style>
<path id="Icon_awesome-phone-alt" class="st0" d="M15.31,11.14l-3.45-1.48c-0.3-0.13-0.65-0.04-0.86,0.21l-1.53,1.87
	c-2.4-1.13-4.32-3.06-5.45-5.45l1.87-1.53C6.14,4.55,6.23,4.2,6.1,3.89L4.62,0.45c-0.14-0.33-0.5-0.51-0.85-0.43l-3.2,0.74
	C0.24,0.84,0,1.13,0,1.48c0,7.89,6.39,14.28,14.28,14.28c0,0,0,0,0,0c0.34,0,0.64-0.24,0.72-0.57l0.74-3.2
	C15.82,11.64,15.64,11.28,15.31,11.14L15.31,11.14z"/>
</svg>
